<?xml version="1.0" encoding="UTF-8"?><svg xmlns="http://www.w3.org/2000/svg" xmlns:xlink="http://www.w3.org/1999/xlink" fill-opacity="1" color-rendering="auto" color-interpolation="auto" text-rendering="auto" stroke="black" stroke-linecap="square" width="989" stroke-miterlimit="10" shape-rendering="auto" stroke-opacity="1" fill="black" stroke-dasharray="none" font-weight="normal" stroke-width="1" height="552" font-family="'Dialog'" font-style="normal" stroke-linejoin="miter" font-size="12px" stroke-dashoffset="0" image-rendering="auto">
  <!--Generated by ySVG 2.5-->
  <defs id="genericDefs"/>
  <g>
    <defs id="defs1">
      <clipPath clipPathUnits="userSpaceOnUse" id="clipPath1">
        <path d="M0 0 L989 0 L989 552 L0 552 L0 0 Z"/>
      </clipPath>
      <clipPath clipPathUnits="userSpaceOnUse" id="clipPath2">
        <path d="M-15 -52 L974 -52 L974 500 L-15 500 L-15 -52 Z"/>
      </clipPath>
    </defs>
    <g fill="white" text-rendering="geometricPrecision" shape-rendering="geometricPrecision" transform="translate(15,52)" stroke="white">
      <rect x="-15" width="989" height="552" y="-52" clip-path="url(#clipPath2)" stroke="none"/>
    </g>
    <g fill="rgb(245,245,245)" text-rendering="geometricPrecision" shape-rendering="geometricPrecision" transform="matrix(1,0,0,1,15,52)" stroke="rgb(245,245,245)">
      <rect x="327.9317" y="209" clip-path="url(#clipPath2)" width="187.6845" rx="4" ry="4" height="158.666" stroke="none"/>
      <rect x="327.9317" y="209" clip-path="url(#clipPath2)" fill="rgb(235,235,235)" width="187.6845" height="21.666" stroke="none"/>
    </g>
    <g font-size="15px" stroke-linecap="butt" transform="matrix(1,0,0,1,15,52)" text-rendering="geometricPrecision" font-family="sans-serif" shape-rendering="geometricPrecision" stroke-miterlimit="1.45">
      <text x="471.9781" xml:space="preserve" y="225.502" clip-path="url(#clipPath2)" stroke="none">Photo</text>
      <rect x="327.9317" y="209" clip-path="url(#clipPath2)" fill="none" width="187.6845" stroke-dasharray="6,2" rx="4" ry="4" height="158.666"/>
    </g>
    <g fill="lime" text-rendering="geometricPrecision" shape-rendering="geometricPrecision" transform="matrix(1,0,0,1,15,52)" stroke="lime">
      <rect x="408.0261" width="91.5898" height="30" y="322.666" clip-path="url(#clipPath2)" stroke="none"/>
    </g>
    <g text-rendering="geometricPrecision" stroke-miterlimit="1.45" shape-rendering="geometricPrecision" transform="matrix(1,0,0,1,15,52)" stroke-linecap="butt">
      <rect fill="none" x="408.0261" width="91.5898" height="30" y="322.666" clip-path="url(#clipPath2)"/>
      <text x="415.0261" xml:space="preserve" y="342.2012" clip-path="url(#clipPath2)" font-family="sans-serif" stroke="none">DSLR Camera</text>
    </g>
    <g fill="rgb(255,204,0)" text-rendering="geometricPrecision" shape-rendering="geometricPrecision" transform="matrix(1,0,0,1,15,52)" stroke="rgb(255,204,0)">
      <rect x="343.9321" width="44.0938" height="30" y="322.666" clip-path="url(#clipPath2)" stroke="none"/>
    </g>
    <g text-rendering="geometricPrecision" stroke-miterlimit="1.45" shape-rendering="geometricPrecision" transform="matrix(1,0,0,1,15,52)" stroke-linecap="butt">
      <rect fill="none" x="343.9321" width="44.0938" height="30" y="322.666" clip-path="url(#clipPath2)"/>
      <text x="350.9321" xml:space="preserve" y="342.2012" clip-path="url(#clipPath2)" font-family="sans-serif" stroke="none">Flash</text>
    </g>
    <g fill="rgb(255,204,0)" text-rendering="geometricPrecision" shape-rendering="geometricPrecision" transform="matrix(1,0,0,1,15,52)" stroke="rgb(255,204,0)">
      <rect x="392.7398" width="76.3672" height="30" y="245.666" clip-path="url(#clipPath2)" stroke="none"/>
    </g>
    <g text-rendering="geometricPrecision" stroke-miterlimit="1.45" shape-rendering="geometricPrecision" transform="matrix(1,0,0,1,15,52)" stroke-linecap="butt">
      <rect fill="none" x="392.7398" width="76.3672" height="30" y="245.666" clip-path="url(#clipPath2)"/>
      <text x="399.7398" xml:space="preserve" y="265.2012" clip-path="url(#clipPath2)" font-family="sans-serif" stroke="none">Pied photo</text>
      <path fill="none" d="M430.9234 275.666 L430.9236 314.6201" clip-path="url(#clipPath2)"/>
      <path d="M430.9236 322.6201 L435.9235 310.6201 L430.9236 313.6201 L425.9236 310.6201 Z" clip-path="url(#clipPath2)" stroke="none"/>
    </g>
    <g fill="rgb(245,245,245)" text-rendering="geometricPrecision" shape-rendering="geometricPrecision" transform="matrix(1,0,0,1,15,52)" stroke="rgb(245,245,245)">
      <rect x="155" y="-36.666" clip-path="url(#clipPath2)" width="438.3508" rx="4" ry="4" height="235.666" stroke="none"/>
      <rect x="155" y="-36.666" clip-path="url(#clipPath2)" fill="rgb(235,235,235)" width="438.3508" height="21.666" stroke="none"/>
    </g>
    <g font-size="15px" stroke-linecap="butt" transform="matrix(1,0,0,1,15,52)" text-rendering="geometricPrecision" font-family="sans-serif" shape-rendering="geometricPrecision" stroke-miterlimit="1.45">
      <text x="440.5671" xml:space="preserve" y="-20.1641" clip-path="url(#clipPath2)" stroke="none">Boite en bois bouton</text>
      <rect x="155" y="-36.666" clip-path="url(#clipPath2)" fill="none" width="438.3508" stroke-dasharray="6,2" rx="4" ry="4" height="235.666"/>
    </g>
    <g fill="lime" text-rendering="geometricPrecision" shape-rendering="geometricPrecision" transform="matrix(1,0,0,1,15,52)" stroke="lime">
      <rect x="319.3091" width="31.6777" height="30" y="77" clip-path="url(#clipPath2)" stroke="none"/>
    </g>
    <g text-rendering="geometricPrecision" stroke-miterlimit="1.45" shape-rendering="geometricPrecision" transform="matrix(1,0,0,1,15,52)" stroke-linecap="butt">
      <rect fill="none" x="319.3091" width="31.6777" height="30" y="77" clip-path="url(#clipPath2)"/>
      <text x="326.3091" xml:space="preserve" y="96.5352" clip-path="url(#clipPath2)" font-family="sans-serif" stroke="none">RPI</text>
    </g>
    <g fill="fuchsia" text-rendering="geometricPrecision" shape-rendering="geometricPrecision" transform="matrix(1,0,0,1,15,52)" stroke="fuchsia">
      <rect x="276.8771" width="124.4609" height="30" y="0" clip-path="url(#clipPath2)" stroke="none"/>
    </g>
    <g text-rendering="geometricPrecision" stroke-miterlimit="1.45" shape-rendering="geometricPrecision" transform="matrix(1,0,0,1,15,52)" stroke-linecap="butt">
      <rect fill="none" x="276.8771" width="124.4609" height="30" y="0" clip-path="url(#clipPath2)"/>
      <text x="283.8771" xml:space="preserve" y="19.5352" clip-path="url(#clipPath2)" font-family="sans-serif" stroke="none">detection distance </text>
    </g>
    <g fill="red" text-rendering="geometricPrecision" shape-rendering="geometricPrecision" transform="matrix(1,0,0,1,15,52)" stroke="red">
      <rect x="421.3383" width="75.9805" height="30" y="0" clip-path="url(#clipPath2)" stroke="none"/>
    </g>
    <g text-rendering="geometricPrecision" stroke-miterlimit="1.45" shape-rendering="geometricPrecision" transform="matrix(1,0,0,1,15,52)" stroke-linecap="butt">
      <rect fill="none" x="421.3383" width="75.9805" height="30" y="0" clip-path="url(#clipPath2)"/>
      <text x="428.3383" xml:space="preserve" y="19.5352" clip-path="url(#clipPath2)" font-family="sans-serif" stroke="none">Bouton OK</text>
    </g>
    <g fill="red" text-rendering="geometricPrecision" shape-rendering="geometricPrecision" transform="matrix(1,0,0,1,15,52)" stroke="red">
      <rect x="171" width="85.877" height="30" y="0" clip-path="url(#clipPath2)" stroke="none"/>
    </g>
    <g text-rendering="geometricPrecision" stroke-miterlimit="1.45" shape-rendering="geometricPrecision" transform="matrix(1,0,0,1,15,52)" stroke-linecap="butt">
      <rect fill="none" x="171" width="85.877" height="30" y="0" clip-path="url(#clipPath2)"/>
      <text x="178" xml:space="preserve" y="19.5352" clip-path="url(#clipPath2)" font-family="sans-serif" stroke="none">Bouton NON</text>
    </g>
    <g fill="fuchsia" text-rendering="geometricPrecision" shape-rendering="geometricPrecision" transform="matrix(1,0,0,1,15,52)" stroke="fuchsia">
      <rect x="226.2969" width="41.8379" height="30" y="154" clip-path="url(#clipPath2)" stroke="none"/>
    </g>
    <g text-rendering="geometricPrecision" stroke-miterlimit="1.45" shape-rendering="geometricPrecision" transform="matrix(1,0,0,1,15,52)" stroke-linecap="butt">
      <rect fill="none" x="226.2969" width="41.8379" height="30" y="154" clip-path="url(#clipPath2)"/>
      <text x="233.2969" xml:space="preserve" y="173.5352" clip-path="url(#clipPath2)" font-family="sans-serif" stroke="none">Relai</text>
      <path fill="none" d="M339.1075 30 L339.1077 68.9541" clip-path="url(#clipPath2)"/>
      <path d="M339.1077 76.9541 L344.1077 64.9541 L339.1077 67.9541 L334.1077 64.9541 Z" clip-path="url(#clipPath2)" stroke="none"/>
      <path fill="none" d="M459.3286 30 L459.3286 45.5 L347.0272 45.5 L347.0272 68.9692" clip-path="url(#clipPath2)"/>
      <path d="M347.0272 76.9692 L352.0272 64.9692 L347.0272 67.9692 L342.0272 64.9692 Z" clip-path="url(#clipPath2)" stroke="none"/>
      <path fill="none" d="M213.9385 30 L213.9385 45.5 L331.1883 45.5 L331.1883 68.9692" clip-path="url(#clipPath2)"/>
      <path d="M331.1883 76.9692 L336.1883 64.9692 L331.1883 67.9692 L326.1883 64.9692 Z" clip-path="url(#clipPath2)" stroke="none"/>
      <path fill="none" d="M331.1883 107 L331.1883 138.5 L247.2159 138.5 L247.2159 145.9697" clip-path="url(#clipPath2)"/>
      <path d="M247.2159 153.9697 L252.2159 141.9697 L247.2159 144.9697 L242.2159 141.9697 Z" clip-path="url(#clipPath2)" stroke="none"/>
    </g>
    <g fill="rgb(245,245,245)" text-rendering="geometricPrecision" shape-rendering="geometricPrecision" transform="matrix(1,0,0,1,15,52)" stroke="rgb(245,245,245)">
      <rect x="775.0853" y="209" clip-path="url(#clipPath2)" width="183.0766" rx="4" ry="4" height="158.666" stroke="none"/>
      <rect x="775.0853" y="209" clip-path="url(#clipPath2)" fill="rgb(235,235,235)" width="183.0766" height="21.666" stroke="none"/>
    </g>
    <g font-size="15px" stroke-linecap="butt" transform="matrix(1,0,0,1,15,52)" text-rendering="geometricPrecision" font-family="sans-serif" shape-rendering="geometricPrecision" stroke-miterlimit="1.45">
      <text x="830.4637" xml:space="preserve" y="225.502" clip-path="url(#clipPath2)" stroke="none">Petite Boite HDMI</text>
      <rect x="775.0853" y="209" clip-path="url(#clipPath2)" fill="none" width="183.0766" stroke-dasharray="6,2" rx="4" ry="4" height="158.666"/>
    </g>
    <g fill="lime" text-rendering="geometricPrecision" shape-rendering="geometricPrecision" transform="matrix(1,0,0,1,15,52)" stroke="lime">
      <rect x="828.5288" width="113.6328" height="30" y="322.666" clip-path="url(#clipPath2)" stroke="none"/>
    </g>
    <g text-rendering="geometricPrecision" stroke-miterlimit="1.45" shape-rendering="geometricPrecision" transform="matrix(1,0,0,1,15,52)" stroke-linecap="butt">
      <rect fill="none" x="828.5288" width="113.6328" height="30" y="322.666" clip-path="url(#clipPath2)"/>
      <text x="835.5288" xml:space="preserve" y="342.2012" clip-path="url(#clipPath2)" font-family="sans-serif" stroke="none">HDMI commande</text>
    </g>
    <g fill="rgb(255,204,0)" text-rendering="geometricPrecision" shape-rendering="geometricPrecision" transform="matrix(1,0,0,1,15,52)" stroke="rgb(255,204,0)">
      <rect x="791.0856" width="113.1113" height="30" y="245.666" clip-path="url(#clipPath2)" stroke="none"/>
    </g>
    <g text-rendering="geometricPrecision" stroke-miterlimit="1.45" shape-rendering="geometricPrecision" transform="matrix(1,0,0,1,15,52)" stroke-linecap="butt">
      <rect fill="none" x="791.0856" width="113.1113" height="30" y="245.666" clip-path="url(#clipPath2)"/>
      <text x="798.0856" xml:space="preserve" y="265.2012" clip-path="url(#clipPath2)" font-family="sans-serif" stroke="none">HDMI controlleur</text>
      <path fill="none" d="M885.345 275.666 L885.3452 314.6201" clip-path="url(#clipPath2)"/>
      <path d="M885.3452 322.6201 L890.3452 310.6201 L885.3452 313.6201 L880.3452 310.6201 Z" clip-path="url(#clipPath2)" stroke="none"/>
    </g>
    <g fill="rgb(245,245,245)" text-rendering="geometricPrecision" shape-rendering="geometricPrecision" transform="matrix(1,0,0,1,15,52)" stroke="rgb(245,245,245)">
      <rect x="0" y="-36.666" clip-path="url(#clipPath2)" width="135" rx="4" ry="4" height="81.666" stroke="none"/>
      <rect x="0" y="-36.666" clip-path="url(#clipPath2)" fill="rgb(235,235,235)" width="135" height="21.666" stroke="none"/>
    </g>
    <g font-size="15px" stroke-linecap="butt" transform="matrix(1,0,0,1,15,52)" text-rendering="geometricPrecision" font-family="sans-serif" shape-rendering="geometricPrecision" stroke-miterlimit="1.45">
      <text x="23.459" xml:space="preserve" y="-20.1641" clip-path="url(#clipPath2)" stroke="none">Boite en carton</text>
      <rect x="0" y="-36.666" clip-path="url(#clipPath2)" fill="none" width="135" stroke-dasharray="6,2" rx="4" ry="4" height="81.666"/>
    </g>
    <g fill="lime" text-rendering="geometricPrecision" shape-rendering="geometricPrecision" transform="matrix(1,0,0,1,15,52)" stroke="lime">
      <rect x="37.9567" width="81.043" height="30" y="0" clip-path="url(#clipPath2)" stroke="none"/>
    </g>
    <g text-rendering="geometricPrecision" stroke-miterlimit="1.45" shape-rendering="geometricPrecision" transform="matrix(1,0,0,1,15,52)" stroke-linecap="butt">
      <rect fill="none" x="37.9567" width="81.043" height="30" y="0" clip-path="url(#clipPath2)"/>
      <text x="44.9567" xml:space="preserve" y="19.5352" clip-path="url(#clipPath2)" font-family="sans-serif" stroke="none">Imprimante</text>
    </g>
    <g fill="rgb(255,153,0)" text-rendering="geometricPrecision" shape-rendering="geometricPrecision" transform="matrix(1,0,0,1,15,52)" stroke="rgb(255,153,0)">
      <rect x="186.5001" width="121.4316" height="30" y="245.666" clip-path="url(#clipPath2)" stroke="none"/>
    </g>
    <g text-rendering="geometricPrecision" stroke-miterlimit="1.45" shape-rendering="geometricPrecision" transform="matrix(1,0,0,1,15,52)" stroke-linecap="butt">
      <rect fill="none" x="186.5001" width="121.4316" height="30" y="245.666" clip-path="url(#clipPath2)"/>
      <text x="193.5" xml:space="preserve" y="265.2012" clip-path="url(#clipPath2)" font-family="sans-serif" stroke="none">Cable long "audio"</text>
    </g>
    <g fill="rgb(255,153,0)" text-rendering="geometricPrecision" shape-rendering="geometricPrecision" transform="matrix(1,0,0,1,15,52)" stroke="rgb(255,153,0)">
      <rect x="535.6164" width="83.4688" height="30" y="245.666" clip-path="url(#clipPath2)" stroke="none"/>
    </g>
    <g text-rendering="geometricPrecision" stroke-miterlimit="1.45" shape-rendering="geometricPrecision" transform="matrix(1,0,0,1,15,52)" stroke-linecap="butt">
      <rect fill="none" x="535.6164" width="83.4688" height="30" y="245.666" clip-path="url(#clipPath2)"/>
      <text x="542.6164" xml:space="preserve" y="265.2012" clip-path="url(#clipPath2)" font-family="sans-serif" stroke="none">ralonge USB</text>
      <rect fill="none" x="123.8351" width="125.7734" height="30" y="454.666" clip-path="url(#clipPath2)"/>
      <text x="130.8351" xml:space="preserve" y="474.2012" clip-path="url(#clipPath2)" font-family="sans-serif" stroke="none">Multiprise 4 prises </text>
      <path fill="none" d="M98.7389 30 L98.7389 61.5 L323.2689 61.5 L323.2689 68.9697" clip-path="url(#clipPath2)"/>
      <path d="M323.2689 76.9697 L328.2689 64.9697 L323.2689 67.9697 L318.2689 64.9697 Z" clip-path="url(#clipPath2)" stroke="none"/>
      <path fill="none" d="M247.2159 184 L247.2159 237.6359" clip-path="url(#clipPath2)"/>
      <path d="M247.2159 245.6359 L252.2159 233.6359 L247.2159 236.6359 L242.2159 233.6359 Z" clip-path="url(#clipPath2)" stroke="none"/>
      <path fill="none" d="M247.2159 275.666 L247.2159 291.166 L365.979 291.166 L365.979 314.6353" clip-path="url(#clipPath2)"/>
      <path d="M365.979 322.6353 L370.979 310.6353 L365.979 313.6353 L360.979 310.6353 Z" clip-path="url(#clipPath2)" stroke="none"/>
      <path fill="none" d="M339.1077 107 L339.1077 138.5 L577.3508 138.5 L577.3508 237.6398" clip-path="url(#clipPath2)"/>
      <path d="M577.3508 245.6398 L582.3508 233.6398 L577.3508 236.6398 L572.3508 233.6398 Z" clip-path="url(#clipPath2)" stroke="none"/>
      <path fill="none" d="M577.3508 275.666 L577.3508 291.166 L476.7185 291.166 L476.7185 314.6353" clip-path="url(#clipPath2)"/>
      <path d="M476.7185 322.6353 L481.7185 310.6353 L476.7185 313.6353 L471.7185 310.6353 Z" clip-path="url(#clipPath2)" stroke="none"/>
      <path fill="none" d="M58.2174 30 L58.2175 408.166 L139.5568 408.166 L139.5568 446.6206" clip-path="url(#clipPath2)"/>
      <path d="M139.5568 454.6206 L144.5568 442.6206 L139.5568 445.6206 L134.5568 442.6206 Z" clip-path="url(#clipPath2)" stroke="none"/>
      <path fill="none" d="M323.2689 107 L323.2689 122.5 L171 122.5 L171.0001 446.6255" clip-path="url(#clipPath2)"/>
      <path d="M171.0002 454.6255 L176.0001 442.6255 L171.0001 445.6255 L166.0001 442.6255 Z" clip-path="url(#clipPath2)" stroke="none"/>
      <path fill="none" d="M847.6413 275.666 L847.6413 307.166 L813.0286 307.166 L813.0286 439.166 L233.8869 439.166 L233.8869 446.6357" clip-path="url(#clipPath2)"/>
      <path d="M233.8869 454.6357 L238.8869 442.6357 L233.8869 445.6357 L228.8869 442.6357 Z" clip-path="url(#clipPath2)" stroke="none"/>
    </g>
    <g fill="rgb(245,245,245)" text-rendering="geometricPrecision" shape-rendering="geometricPrecision" transform="matrix(1,0,0,1,15,52)" stroke="rgb(245,245,245)">
      <rect x="639.0853" y="209" clip-path="url(#clipPath2)" width="116" rx="4" ry="4" height="158.666" stroke="none"/>
      <rect x="639.0853" y="209" clip-path="url(#clipPath2)" fill="rgb(235,235,235)" width="116" height="21.666" stroke="none"/>
    </g>
    <g font-size="15px" stroke-linecap="butt" transform="matrix(1,0,0,1,15,52)" text-rendering="geometricPrecision" font-family="sans-serif" shape-rendering="geometricPrecision" stroke-miterlimit="1.45">
      <text x="662.6605" xml:space="preserve" y="225.502" clip-path="url(#clipPath2)" stroke="none">Cadre Miroir</text>
      <rect x="639.0853" y="209" clip-path="url(#clipPath2)" fill="none" width="116" stroke-dasharray="6,2" rx="4" ry="4" height="158.666"/>
    </g>
    <g fill="lime" text-rendering="geometricPrecision" shape-rendering="geometricPrecision" transform="matrix(1,0,0,1,15,52)" stroke="lime">
      <rect x="689.1148" width="45.6348" height="30" y="322.666" clip-path="url(#clipPath2)" stroke="none"/>
    </g>
    <g text-rendering="geometricPrecision" stroke-miterlimit="1.45" shape-rendering="geometricPrecision" transform="matrix(1,0,0,1,15,52)" stroke-linecap="butt">
      <rect fill="none" x="689.1148" width="45.6348" height="30" y="322.666" clip-path="url(#clipPath2)"/>
      <text x="696.1147" xml:space="preserve" y="342.2012" clip-path="url(#clipPath2)" font-family="sans-serif" stroke="none">Ecran</text>
    </g>
    <g fill="rgb(255,204,0)" text-rendering="geometricPrecision" shape-rendering="geometricPrecision" transform="matrix(1,0,0,1,15,52)" stroke="rgb(255,204,0)">
      <rect x="662.6826" width="75.6816" height="30" y="245.666" clip-path="url(#clipPath2)" stroke="none"/>
    </g>
    <g text-rendering="geometricPrecision" stroke-miterlimit="1.45" shape-rendering="geometricPrecision" transform="matrix(1,0,0,1,15,52)" stroke-linecap="butt">
      <rect fill="none" x="662.6826" width="75.6816" height="30" y="245.666" clip-path="url(#clipPath2)"/>
      <text x="669.6826" xml:space="preserve" y="265.2012" clip-path="url(#clipPath2)" font-family="sans-serif" stroke="none">film miroir</text>
    </g>
    <g fill="rgb(255,153,0)" text-rendering="geometricPrecision" shape-rendering="geometricPrecision" transform="matrix(1,0,0,1,15,52)" stroke="rgb(255,153,0)">
      <rect x="396.946" width="113.75" height="30" y="377.666" clip-path="url(#clipPath2)" stroke="none"/>
    </g>
    <g text-rendering="geometricPrecision" stroke-miterlimit="1.45" shape-rendering="geometricPrecision" transform="matrix(1,0,0,1,15,52)" stroke-linecap="butt">
      <rect fill="none" x="396.946" width="113.75" height="30" y="377.666" clip-path="url(#clipPath2)"/>
      <text x="403.946" xml:space="preserve" y="397.2012" clip-path="url(#clipPath2)" font-family="sans-serif" stroke="none">Secteur pour dslr</text>
    </g>
    <g fill="rgb(255,153,0)" text-rendering="geometricPrecision" shape-rendering="geometricPrecision" transform="matrix(1,0,0,1,15,52)" stroke="rgb(255,153,0)">
      <rect x="806.6247" width="82.0332" height="30" y="154" clip-path="url(#clipPath2)" stroke="none"/>
    </g>
    <g text-rendering="geometricPrecision" stroke-miterlimit="1.45" shape-rendering="geometricPrecision" transform="matrix(1,0,0,1,15,52)" stroke-linecap="butt">
      <rect fill="none" x="806.6247" width="82.0332" height="30" y="154" clip-path="url(#clipPath2)"/>
      <text x="813.6247" xml:space="preserve" y="173.5352" clip-path="url(#clipPath2)" font-family="sans-serif" stroke="none">Cable HDMI</text>
      <path fill="none" d="M809.9375 275.666 L809.9375 291.166 L723.3408 291.166 L723.3408 314.6353" clip-path="url(#clipPath2)"/>
      <path d="M723.3408 322.6353 L728.3408 310.6353 L723.3408 313.6353 L718.3408 310.6353 Z" clip-path="url(#clipPath2)" stroke="none"/>
      <path fill="none" d="M700.5234 275.666 L700.5234 314.6201" clip-path="url(#clipPath2)"/>
      <path d="M700.5234 322.6201 L705.5234 310.6201 L700.5234 313.6201 L695.5234 310.6201 Z" clip-path="url(#clipPath2)" stroke="none"/>
      <path fill="none" d="M453.821 352.666 L453.821 369.6172" clip-path="url(#clipPath2)"/>
      <path d="M453.821 377.6172 L458.821 365.6172 L453.821 368.6172 L448.821 365.6172 Z" clip-path="url(#clipPath2)" stroke="none"/>
      <path fill="none" d="M453.821 407.666 L453.821 423.166 L202.4435 423.166 L202.4435 446.6353" clip-path="url(#clipPath2)"/>
      <path d="M202.4435 454.6353 L207.4435 442.6353 L202.4435 445.6353 L197.4435 442.6353 Z" clip-path="url(#clipPath2)" stroke="none"/>
      <path fill="none" d="M347.0272 107 L347.0272 122.5 L847.6413 122.5 L847.6413 145.9692" clip-path="url(#clipPath2)"/>
      <path d="M847.6413 153.9692 L852.6413 141.9692 L847.6413 144.9692 L842.6413 141.9692 Z" clip-path="url(#clipPath2)" stroke="none"/>
      <path fill="none" d="M847.6413 184 L847.6413 237.6359" clip-path="url(#clipPath2)"/>
      <path d="M847.6413 245.6359 L852.6413 233.6359 L847.6413 236.6359 L842.6413 233.6359 Z" clip-path="url(#clipPath2)" stroke="none"/>
    </g>
  </g>
</svg>
