<?xml version="1.0" encoding="UTF-8"?><svg xmlns="http://www.w3.org/2000/svg" xmlns:xlink="http://www.w3.org/1999/xlink" fill-opacity="1" color-rendering="auto" color-interpolation="auto" text-rendering="auto" stroke="black" stroke-linecap="square" width="1242" stroke-miterlimit="10" shape-rendering="auto" stroke-opacity="1" fill="black" stroke-dasharray="none" font-weight="normal" stroke-width="1" height="1383" font-family="'Dialog'" font-style="normal" stroke-linejoin="miter" font-size="12px" stroke-dashoffset="0" image-rendering="auto">
  <!--Generated by ySVG 2.5-->
  <defs id="genericDefs"/>
  <g>
    <defs id="defs1">
      <clipPath clipPathUnits="userSpaceOnUse" id="clipPath1">
        <path d="M0 0 L1242 0 L1242 1383 L0 1383 L0 0 Z"/>
      </clipPath>
      <clipPath clipPathUnits="userSpaceOnUse" id="clipPath2">
        <path d="M0 -52 L1242 -52 L1242 1331 L0 1331 L0 -52 Z"/>
      </clipPath>
    </defs>
    <g fill="white" text-rendering="geometricPrecision" shape-rendering="geometricPrecision" transform="translate(0,52)" stroke="white">
      <rect x="0" width="1242" height="1383" y="-52" clip-path="url(#clipPath2)" stroke="none"/>
    </g>
    <g fill="rgb(204,153,255)" text-rendering="geometricPrecision" shape-rendering="geometricPrecision" transform="matrix(1,0,0,1,0,52)" stroke="rgb(204,153,255)">
      <rect x="749.3808" width="72.8105" height="30" y="91.666" clip-path="url(#clipPath2)" stroke="none"/>
    </g>
    <g text-rendering="geometricPrecision" stroke-miterlimit="1.45" shape-rendering="geometricPrecision" transform="matrix(1,0,0,1,0,52)" stroke-linecap="butt">
      <rect fill="none" x="749.3808" width="72.8105" height="30" y="91.666" clip-path="url(#clipPath2)"/>
      <text x="756.3809" xml:space="preserve" y="111.2012" clip-path="url(#clipPath2)" font-family="sans-serif" stroke="none">ecran noir</text>
    </g>
    <g fill="rgb(204,153,255)" text-rendering="geometricPrecision" shape-rendering="geometricPrecision" transform="matrix(1,0,0,1,0,52)" stroke="rgb(204,153,255)">
      <rect x="255.4549" width="143.4688" height="30" y="265.332" clip-path="url(#clipPath2)" stroke="none"/>
    </g>
    <g text-rendering="geometricPrecision" stroke-miterlimit="1.45" shape-rendering="geometricPrecision" transform="matrix(1,0,0,1,0,52)" stroke-linecap="butt">
      <rect fill="none" x="255.4549" width="143.4688" height="30" y="265.332" clip-path="url(#clipPath2)"/>
      <text x="262.4549" xml:space="preserve" y="284.8672" clip-path="url(#clipPath2)" font-family="sans-serif" stroke="none">Le masque s'approche</text>
    </g>
    <g fill="rgb(153,204,255)" text-rendering="geometricPrecision" shape-rendering="geometricPrecision" transform="matrix(1,0,0,1,0,52)" stroke="rgb(153,204,255)">
      <rect x="276.742" width="100.8945" height="30" y="326.332" clip-path="url(#clipPath2)" stroke="none"/>
    </g>
    <g text-rendering="geometricPrecision" stroke-miterlimit="1.45" shape-rendering="geometricPrecision" transform="matrix(1,0,0,1,0,52)" stroke-linecap="butt">
      <rect fill="none" x="276.742" width="100.8945" height="30" y="326.332" clip-path="url(#clipPath2)"/>
      <text x="283.742" xml:space="preserve" y="345.8672" clip-path="url(#clipPath2)" font-family="sans-serif" stroke="none">Texte d'accueil</text>
    </g>
    <g fill="rgb(255,204,0)" text-rendering="geometricPrecision" shape-rendering="geometricPrecision" transform="matrix(1,0,0,1,0,52)" stroke="rgb(255,204,0)">
      <path d="M103.6145 376.3322 L506.0487 376.3322 L550.7635 391.3321 L506.0487 406.3321 L103.6145 406.3321 L148.3293 391.3321 Z" fill-rule="evenodd" clip-path="url(#clipPath2)" stroke="none"/>
    </g>
    <g text-rendering="geometricPrecision" stroke-miterlimit="1.45" shape-rendering="geometricPrecision" transform="matrix(1,0,0,1,0,52)" stroke-linecap="butt">
      <path fill="none" d="M103.6145 376.3322 L506.0487 376.3322 L550.7635 391.3321 L506.0487 406.3321 L103.6145 406.3321 L148.3293 391.3321 Z" fill-rule="evenodd" clip-path="url(#clipPath2)"/>
      <text x="166.783" xml:space="preserve" y="395.8672" clip-path="url(#clipPath2)" font-family="sans-serif" stroke="none">Appuyer sur un des 2 boutons pour prendre une photo</text>
    </g>
    <g fill="rgb(153,204,255)" text-rendering="geometricPrecision" shape-rendering="geometricPrecision" transform="matrix(1,0,0,1,0,52)" stroke="rgb(153,204,255)">
      <rect x="63.9322" width="96.7285" height="30" y="437.332" clip-path="url(#clipPath2)" stroke="none"/>
    </g>
    <g text-rendering="geometricPrecision" stroke-miterlimit="1.45" shape-rendering="geometricPrecision" transform="matrix(1,0,0,1,0,52)" stroke-linecap="butt">
      <rect fill="none" x="63.9322" width="96.7285" height="30" y="437.332" clip-path="url(#clipPath2)"/>
      <text x="70.9322" xml:space="preserve" y="456.8672" clip-path="url(#clipPath2)" font-family="sans-serif" stroke="none">Installez-vous</text>
    </g>
    <g fill="rgb(204,153,255)" text-rendering="geometricPrecision" shape-rendering="geometricPrecision" transform="matrix(1,0,0,1,0,52)" stroke="rgb(204,153,255)">
      <rect x="15" width="146.2285" height="30" y="534.998" clip-path="url(#clipPath2)" stroke="none"/>
    </g>
    <g text-rendering="geometricPrecision" stroke-miterlimit="1.45" shape-rendering="geometricPrecision" transform="matrix(1,0,0,1,0,52)" stroke-linecap="butt">
      <rect fill="none" x="15" width="146.2285" height="30" y="534.998" clip-path="url(#clipPath2)"/>
      <text x="22" xml:space="preserve" y="554.5332" clip-path="url(#clipPath2)" font-family="sans-serif" stroke="none">Photo de presentation </text>
      <path fill="none" d="M785.7861 121.666 L785.7861 249.832 L375.0122 249.832 L375.0122 257.3018" clip-path="url(#clipPath2)"/>
      <path d="M375.0122 265.3018 L380.0122 253.3018 L375.0122 256.3018 L370.0122 253.3018 Z" clip-path="url(#clipPath2)" stroke="none"/>
      <path fill="none" d="M327.1893 295.332 L327.1893 318.3018" clip-path="url(#clipPath2)"/>
      <path d="M327.1893 326.3018 L332.1893 314.3018 L327.1893 317.3018 L322.1893 314.3018 Z" clip-path="url(#clipPath2)" stroke="none"/>
      <path fill="none" d="M327.1893 356.332 L327.1893 368.332" clip-path="url(#clipPath2)"/>
      <path d="M327.1893 376.332 L332.1893 364.332 L327.1893 367.332 L322.1893 364.332 Z" clip-path="url(#clipPath2)" stroke="none"/>
      <path fill="none" d="M215.4019 406.3623 L215.4019 421.832 L136.4786 421.832 L136.4786 429.3018" clip-path="url(#clipPath2)"/>
      <path d="M136.4786 437.3018 L141.4786 425.3018 L136.4786 428.3018 L131.4786 425.3018 Z" clip-path="url(#clipPath2)" stroke="none"/>
      <path fill="none" d="M88.1143 467.332 L88.1143 526.965" clip-path="url(#clipPath2)"/>
      <path d="M88.1143 534.965 L93.1143 522.965 L88.1143 525.965 L83.1143 522.965 Z" clip-path="url(#clipPath2)" stroke="none"/>
    </g>
    <g fill="rgb(245,245,245)" text-rendering="geometricPrecision" shape-rendering="geometricPrecision" transform="matrix(1,0,0,1,0,52)" stroke="rgb(245,245,245)">
      <rect x="397.1427" y="589.998" clip-path="url(#clipPath2)" width="258.8595" rx="4" ry="4" height="331.666" stroke="none"/>
      <rect x="397.1427" y="589.998" clip-path="url(#clipPath2)" fill="rgb(235,235,235)" width="258.8595" height="21.666" stroke="none"/>
    </g>
    <g font-size="15px" stroke-linecap="butt" transform="matrix(1,0,0,1,0,52)" text-rendering="geometricPrecision" font-family="sans-serif" shape-rendering="geometricPrecision" stroke-miterlimit="1.45">
      <text x="612.5764" xml:space="preserve" y="606.5" clip-path="url(#clipPath2)" stroke="none">Shoot</text>
      <rect x="397.1427" y="589.998" clip-path="url(#clipPath2)" fill="none" width="258.8595" stroke-dasharray="6,2" rx="4" ry="4" height="331.666"/>
    </g>
    <g fill="rgb(255,204,0)" text-rendering="geometricPrecision" shape-rendering="geometricPrecision" transform="matrix(1,0,0,1,0,52)" stroke="rgb(255,204,0)">
      <rect x="489.5226" width="74.0996" height="30" y="626.6641" clip-path="url(#clipPath2)" stroke="none"/>
    </g>
    <g text-rendering="geometricPrecision" stroke-miterlimit="1.45" shape-rendering="geometricPrecision" transform="matrix(1,0,0,1,0,52)" stroke-linecap="butt">
      <rect fill="none" x="489.5226" width="74.0996" height="30" y="626.6641" clip-path="url(#clipPath2)"/>
      <text x="496.5226" xml:space="preserve" y="646.1992" clip-path="url(#clipPath2)" font-family="sans-serif" stroke="none">Flash : on </text>
    </g>
    <g fill="rgb(255,204,0)" text-rendering="geometricPrecision" shape-rendering="geometricPrecision" transform="matrix(1,0,0,1,0,52)" stroke="rgb(255,204,0)">
      <rect x="490.592" width="71.9609" height="30" y="676.6641" clip-path="url(#clipPath2)" stroke="none"/>
    </g>
    <g text-rendering="geometricPrecision" stroke-miterlimit="1.45" shape-rendering="geometricPrecision" transform="matrix(1,0,0,1,0,52)" stroke-linecap="butt">
      <rect fill="none" x="490.592" width="71.9609" height="30" y="676.6641" clip-path="url(#clipPath2)"/>
      <text x="497.5919" xml:space="preserve" y="696.1992" clip-path="url(#clipPath2)" font-family="sans-serif" stroke="none">Compteur</text>
    </g>
    <g fill="rgb(255,204,0)" text-rendering="geometricPrecision" shape-rendering="geometricPrecision" transform="matrix(1,0,0,1,0,52)" stroke="rgb(255,204,0)">
      <rect x="502.9171" width="47.3105" height="30" y="726.6641" clip-path="url(#clipPath2)" stroke="none"/>
    </g>
    <g text-rendering="geometricPrecision" stroke-miterlimit="1.45" shape-rendering="geometricPrecision" transform="matrix(1,0,0,1,0,52)" stroke-linecap="butt">
      <rect fill="none" x="502.9171" width="47.3105" height="30" y="726.6641" clip-path="url(#clipPath2)"/>
      <text x="509.9171" xml:space="preserve" y="746.1992" clip-path="url(#clipPath2)" font-family="sans-serif" stroke="none">Photo</text>
    </g>
    <g fill="rgb(255,204,0)" text-rendering="geometricPrecision" shape-rendering="geometricPrecision" transform="matrix(1,0,0,1,0,52)" stroke="rgb(255,204,0)">
      <rect x="413.1427" width="226.8594" height="30" y="776.6641" clip-path="url(#clipPath2)" stroke="none"/>
    </g>
    <g text-rendering="geometricPrecision" stroke-miterlimit="1.45" shape-rendering="geometricPrecision" transform="matrix(1,0,0,1,0,52)" stroke-linecap="butt">
      <rect fill="none" x="413.1427" width="226.8594" height="30" y="776.6641" clip-path="url(#clipPath2)"/>
      <text x="420.1427" xml:space="preserve" y="796.1992" clip-path="url(#clipPath2)" font-family="sans-serif" stroke="none">Application de modification possible</text>
    </g>
    <g fill="rgb(255,204,0)" text-rendering="geometricPrecision" shape-rendering="geometricPrecision" transform="matrix(1,0,0,1,0,52)" stroke="rgb(255,204,0)">
      <rect x="492.092" width="68.9609" height="30" y="826.6641" clip-path="url(#clipPath2)" stroke="none"/>
    </g>
    <g text-rendering="geometricPrecision" stroke-miterlimit="1.45" shape-rendering="geometricPrecision" transform="matrix(1,0,0,1,0,52)" stroke-linecap="butt">
      <rect fill="none" x="492.092" width="68.9609" height="30" y="826.6641" clip-path="url(#clipPath2)"/>
      <text x="499.0919" xml:space="preserve" y="846.1992" clip-path="url(#clipPath2)" font-family="sans-serif" stroke="none">Affichage</text>
    </g>
    <g fill="rgb(255,204,0)" text-rendering="geometricPrecision" shape-rendering="geometricPrecision" transform="matrix(1,0,0,1,0,52)" stroke="rgb(255,204,0)">
      <rect x="490.7326" width="71.6797" height="30" y="876.6641" clip-path="url(#clipPath2)" stroke="none"/>
    </g>
    <g text-rendering="geometricPrecision" stroke-miterlimit="1.45" shape-rendering="geometricPrecision" transform="matrix(1,0,0,1,0,52)" stroke-linecap="butt">
      <rect fill="none" x="490.7326" width="71.6797" height="30" y="876.6641" clip-path="url(#clipPath2)"/>
      <text x="497.7326" xml:space="preserve" y="896.1992" clip-path="url(#clipPath2)" font-family="sans-serif" stroke="none">Flash : off</text>
      <path fill="none" d="M526.5724 656.6641 L526.5724 668.625" clip-path="url(#clipPath2)"/>
      <path d="M526.5724 676.625 L531.5724 664.625 L526.5724 667.625 L521.5724 664.625 Z" clip-path="url(#clipPath2)" stroke="none"/>
      <path fill="none" d="M526.5724 706.6641 L526.5724 718.625" clip-path="url(#clipPath2)"/>
      <path d="M526.5724 726.625 L531.5724 714.625 L526.5724 717.625 L521.5724 714.625 Z" clip-path="url(#clipPath2)" stroke="none"/>
      <path fill="none" d="M526.5724 756.6641 L526.5724 768.625" clip-path="url(#clipPath2)"/>
      <path d="M526.5724 776.625 L531.5724 764.625 L526.5724 767.625 L521.5724 764.625 Z" clip-path="url(#clipPath2)" stroke="none"/>
      <path fill="none" d="M526.5724 806.6641 L526.5724 818.625" clip-path="url(#clipPath2)"/>
      <path d="M526.5724 826.625 L531.5724 814.625 L526.5724 817.625 L521.5724 814.625 Z" clip-path="url(#clipPath2)" stroke="none"/>
      <path fill="none" d="M526.5724 856.6641 L526.5724 868.625" clip-path="url(#clipPath2)"/>
      <path d="M526.5724 876.625 L531.5724 864.625 L526.5724 867.625 L521.5724 864.625 Z" clip-path="url(#clipPath2)" stroke="none"/>
    </g>
    <g fill="rgb(245,245,245)" text-rendering="geometricPrecision" shape-rendering="geometricPrecision" transform="matrix(1,0,0,1,0,52)" stroke="rgb(245,245,245)">
      <rect x="181.2286" y="498.332" clip-path="url(#clipPath2)" width="534.8988" rx="4" ry="4" height="81.666" stroke="none"/>
      <rect x="181.2286" y="498.332" clip-path="url(#clipPath2)" fill="rgb(235,235,235)" width="534.8988" height="21.666" stroke="none"/>
    </g>
    <g font-size="15px" stroke-linecap="butt" transform="matrix(1,0,0,1,0,52)" text-rendering="geometricPrecision" font-family="sans-serif" shape-rendering="geometricPrecision" stroke-miterlimit="1.45">
      <text x="562.4428" xml:space="preserve" y="514.834" clip-path="url(#clipPath2)" stroke="none">Préparation de shoot</text>
      <rect x="181.2286" y="498.332" clip-path="url(#clipPath2)" fill="none" width="534.8988" stroke-dasharray="6,2" rx="4" ry="4" height="81.666"/>
    </g>
    <g fill="rgb(255,204,0)" text-rendering="geometricPrecision" shape-rendering="geometricPrecision" transform="matrix(1,0,0,1,0,52)" stroke="rgb(255,204,0)">
      <path d="M532.0911 534.9981 L683.3237 534.9981 L700.1271 549.9981 L683.3237 564.9981 L532.0911 564.9981 L548.8947 549.9981 Z" fill-rule="evenodd" clip-path="url(#clipPath2)" stroke="none"/>
    </g>
    <g text-rendering="geometricPrecision" stroke-miterlimit="1.45" shape-rendering="geometricPrecision" transform="matrix(1,0,0,1,0,52)" stroke-linecap="butt">
      <path fill="none" d="M532.0911 534.9981 L683.3237 534.9981 L700.1271 549.9981 L683.3237 564.9981 L532.0911 564.9981 L548.8947 549.9981 Z" fill-rule="evenodd" clip-path="url(#clipPath2)"/>
      <text x="551.2722" xml:space="preserve" y="554.5332" clip-path="url(#clipPath2)" font-family="sans-serif" stroke="none">C'est partie : Bouton 1</text>
    </g>
    <g fill="rgb(255,204,0)" text-rendering="geometricPrecision" shape-rendering="geometricPrecision" transform="matrix(1,0,0,1,0,52)" stroke="rgb(255,204,0)">
      <path d="M365.8627 534.9982 L497.4683 534.9982 L512.0911 549.9981 L497.4683 564.9981 L365.8627 564.9981 L380.4855 549.9981 Z" fill-rule="evenodd" clip-path="url(#clipPath2)" stroke="none"/>
    </g>
    <g text-rendering="geometricPrecision" stroke-miterlimit="1.45" shape-rendering="geometricPrecision" transform="matrix(1,0,0,1,0,52)" stroke-linecap="butt">
      <path fill="none" d="M365.8627 534.9982 L497.4683 534.9982 L512.0911 549.9981 L497.4683 564.9981 L365.8627 564.9981 L380.4855 549.9981 Z" fill-rule="evenodd" clip-path="url(#clipPath2)"/>
      <text x="384.2325" xml:space="preserve" y="554.5332" clip-path="url(#clipPath2)" font-family="sans-serif" stroke="none">Annuler : Bouton 2</text>
      <path fill="none" d="M136.4786 467.332 L136.4786 482.832 L186.9786 482.832 L186.9786 490.3018" clip-path="url(#clipPath2)"/>
      <path d="M186.9786 498.3018 L191.9786 486.3018 L186.9786 489.3018 L181.9786 486.3018 Z" clip-path="url(#clipPath2)" stroke="none"/>
      <path fill="none" d="M616.1091 565.0469 L616.1091 581.9493" clip-path="url(#clipPath2)"/>
      <path d="M616.1091 589.9493 L621.1091 577.9493 L616.1091 580.9493 L611.1091 577.9493 Z" clip-path="url(#clipPath2)" stroke="none"/>
      <path fill="none" d="M438.9766 534.998 L438.9767 414.3634" clip-path="url(#clipPath2)"/>
      <path d="M438.9767 406.3634 L433.9767 418.3634 L438.9767 415.3634 L443.9767 418.3634 Z" clip-path="url(#clipPath2)" stroke="none"/>
    </g>
    <g fill="rgb(245,245,245)" text-rendering="geometricPrecision" shape-rendering="geometricPrecision" transform="matrix(1,0,0,1,0,52)" stroke="rgb(245,245,245)">
      <rect x="377.5262" y="941.6641" clip-path="url(#clipPath2)" width="422.0302" rx="4" ry="4" height="81.666" stroke="none"/>
      <rect x="377.5262" y="941.6641" clip-path="url(#clipPath2)" fill="rgb(235,235,235)" width="422.0302" height="21.666" stroke="none"/>
    </g>
    <g font-size="15px" stroke-linecap="butt" transform="matrix(1,0,0,1,0,52)" text-rendering="geometricPrecision" font-family="sans-serif" shape-rendering="geometricPrecision" stroke-miterlimit="1.45">
      <text x="721.0549" xml:space="preserve" y="958.166" clip-path="url(#clipPath2)" stroke="none">Post shoot</text>
      <rect x="377.5262" y="941.6641" clip-path="url(#clipPath2)" fill="none" width="422.0302" stroke-dasharray="6,2" rx="4" ry="4" height="81.666"/>
    </g>
    <g fill="rgb(255,204,0)" text-rendering="geometricPrecision" shape-rendering="geometricPrecision" transform="matrix(1,0,0,1,0,52)" stroke="rgb(255,204,0)">
      <path d="M588.6807 978.3301 L764.0683 978.3301 L783.5557 993.3301 L764.0683 1008.3301 L588.6807 1008.3301 L608.1682 993.3301 Z" fill-rule="evenodd" clip-path="url(#clipPath2)" stroke="none"/>
    </g>
    <g text-rendering="geometricPrecision" stroke-miterlimit="1.45" shape-rendering="geometricPrecision" transform="matrix(1,0,0,1,0,52)" stroke-linecap="butt">
      <path fill="none" d="M588.6807 978.3301 L764.0683 978.3301 L783.5557 993.3301 L764.0683 1008.3301 L588.6807 1008.3301 L608.1682 993.3301 Z" fill-rule="evenodd" clip-path="url(#clipPath2)"/>
      <text x="613.1812" xml:space="preserve" y="997.8652" clip-path="url(#clipPath2)" font-family="sans-serif" stroke="none">Recommencer : Bouton 1</text>
    </g>
    <g fill="rgb(255,204,0)" text-rendering="geometricPrecision" shape-rendering="geometricPrecision" transform="matrix(1,0,0,1,0,52)" stroke="rgb(255,204,0)">
      <path d="M393.5259 978.3301 L551.1649 978.3301 L568.6804 993.3301 L551.1649 1008.3301 L393.5259 1008.3301 L411.0414 993.3301 Z" fill-rule="evenodd" clip-path="url(#clipPath2)" stroke="none"/>
    </g>
    <g text-rendering="geometricPrecision" stroke-miterlimit="1.45" shape-rendering="geometricPrecision" transform="matrix(1,0,0,1,0,52)" stroke-linecap="butt">
      <path fill="none" d="M393.5259 978.3301 L551.1649 978.3301 L568.6804 993.3301 L551.1649 1008.3301 L393.5259 1008.3301 L411.0414 993.3301 Z" fill-rule="evenodd" clip-path="url(#clipPath2)"/>
      <text x="422.1817" xml:space="preserve" y="997.8652" clip-path="url(#clipPath2)" font-family="sans-serif" stroke="none">Imprimer : bouton 2</text>
      <path fill="none" d="M521.6974 921.6641 L521.6974 933.625" clip-path="url(#clipPath2)"/>
      <path d="M521.6974 941.625 L526.6974 929.625 L521.6974 932.625 L516.6974 929.625 Z" clip-path="url(#clipPath2)" stroke="none"/>
      <path fill="none" d="M686.1187 978.2814 L686.1187 587.998" clip-path="url(#clipPath2)"/>
      <path d="M686.1187 579.998 L681.1187 591.998 L686.1187 588.998 L691.1187 591.998 Z" clip-path="url(#clipPath2)" stroke="none"/>
    </g>
    <g fill="rgb(245,245,245)" text-rendering="geometricPrecision" shape-rendering="geometricPrecision" transform="matrix(1,0,0,1,0,52)" stroke="rgb(245,245,245)">
      <rect x="253.5885" y="1083.3301" clip-path="url(#clipPath2)" width="545.9679" rx="4" ry="4" height="81.666" stroke="none"/>
      <rect x="253.5885" y="1083.3301" clip-path="url(#clipPath2)" fill="rgb(235,235,235)" width="545.9679" height="21.666" stroke="none"/>
    </g>
    <g font-size="15px" stroke-linecap="butt" transform="matrix(1,0,0,1,0,52)" text-rendering="geometricPrecision" font-family="sans-serif" shape-rendering="geometricPrecision" stroke-miterlimit="1.45">
      <text x="616.7507" xml:space="preserve" y="1099.832" clip-path="url(#clipPath2)" stroke="none">Confirmation Impression</text>
      <rect x="253.5885" y="1083.3301" clip-path="url(#clipPath2)" fill="none" width="545.9679" stroke-dasharray="6,2" rx="4" ry="4" height="81.666"/>
    </g>
    <g fill="rgb(255,204,0)" text-rendering="geometricPrecision" shape-rendering="geometricPrecision" transform="matrix(1,0,0,1,0,52)" stroke="rgb(255,204,0)">
      <path d="M520.9216 1119.9961 L757.2922 1119.9961 L783.5556 1134.9961 L757.2922 1149.9961 L520.9216 1149.9961 L547.1849 1134.9961 Z" fill-rule="evenodd" clip-path="url(#clipPath2)" stroke="none"/>
    </g>
    <g text-rendering="geometricPrecision" stroke-miterlimit="1.45" shape-rendering="geometricPrecision" transform="matrix(1,0,0,1,0,52)" stroke-linecap="butt">
      <path fill="none" d="M520.9216 1119.9961 L757.2922 1119.9961 L783.5556 1134.9961 L757.2922 1149.9961 L520.9216 1149.9961 L547.1849 1134.9961 Z" fill-rule="evenodd" clip-path="url(#clipPath2)"/>
      <text x="556.3444" xml:space="preserve" y="1139.5312" clip-path="url(#clipPath2)" font-family="sans-serif" stroke="none">Absulument imprimer : bouton 1</text>
    </g>
    <g fill="rgb(255,204,0)" text-rendering="geometricPrecision" shape-rendering="geometricPrecision" transform="matrix(1,0,0,1,0,52)" stroke="rgb(255,204,0)">
      <path d="M269.5889 1119.9961 L444.9759 1119.9961 L464.4633 1134.9961 L444.9759 1149.9961 L269.5889 1149.9961 L289.0763 1134.9961 Z" fill-rule="evenodd" clip-path="url(#clipPath2)" stroke="none"/>
    </g>
    <g text-rendering="geometricPrecision" stroke-miterlimit="1.45" shape-rendering="geometricPrecision" transform="matrix(1,0,0,1,0,52)" stroke-linecap="butt">
      <path fill="none" d="M269.5889 1119.9961 L444.9759 1119.9961 L464.4633 1134.9961 L444.9759 1149.9961 L269.5889 1149.9961 L289.0763 1134.9961 Z" fill-rule="evenodd" clip-path="url(#clipPath2)"/>
      <text x="294.0887" xml:space="preserve" y="1139.5312" clip-path="url(#clipPath2)" font-family="sans-serif" stroke="none">Recommencer : Bouton 2</text>
    </g>
    <g fill="rgb(153,204,255)" text-rendering="geometricPrecision" shape-rendering="geometricPrecision" transform="matrix(1,0,0,1,0,52)" stroke="rgb(153,204,255)">
      <rect x="429.2706" width="103.666" height="30" y="1033.3301" clip-path="url(#clipPath2)" stroke="none"/>
    </g>
    <g text-rendering="geometricPrecision" stroke-miterlimit="1.45" shape-rendering="geometricPrecision" transform="matrix(1,0,0,1,0,52)" stroke-linecap="butt">
      <rect fill="none" x="429.2706" width="103.666" height="30" y="1033.3301" clip-path="url(#clipPath2)"/>
      <text x="436.2706" xml:space="preserve" y="1052.8652" clip-path="url(#clipPath2)" font-family="sans-serif" stroke="none">Etes vous sûr ? </text>
    </g>
    <g fill="rgb(255,102,0)" text-rendering="geometricPrecision" shape-rendering="geometricPrecision" transform="matrix(1,0,0,1,0,52)" stroke="rgb(255,102,0)">
      <rect x="618.5436" width="67.3906" height="30" y="1174.9961" clip-path="url(#clipPath2)" stroke="none"/>
    </g>
    <g text-rendering="geometricPrecision" stroke-miterlimit="1.45" shape-rendering="geometricPrecision" transform="matrix(1,0,0,1,0,52)" stroke-linecap="butt">
      <rect fill="none" x="618.5436" width="67.3906" height="30" y="1174.9961" clip-path="url(#clipPath2)"/>
      <text x="625.5436" xml:space="preserve" y="1194.5312" clip-path="url(#clipPath2)" font-family="sans-serif" stroke="none">Imprimer</text>
    </g>
    <g fill="rgb(204,153,255)" text-rendering="geometricPrecision" shape-rendering="geometricPrecision" transform="matrix(1,0,0,1,0,52)" stroke="rgb(204,153,255)">
      <rect x="598.0446" width="108.3887" height="30" y="1224.9961" clip-path="url(#clipPath2)" stroke="none"/>
    </g>
    <g text-rendering="geometricPrecision" stroke-miterlimit="1.45" shape-rendering="geometricPrecision" transform="matrix(1,0,0,1,0,52)" stroke-linecap="butt">
      <rect fill="none" x="598.0446" width="108.3887" height="30" y="1224.9961" clip-path="url(#clipPath2)"/>
      <text x="605.0446" xml:space="preserve" y="1244.5312" clip-path="url(#clipPath2)" font-family="sans-serif" stroke="none">Chrono de 1min</text>
    </g>
    <g fill="rgb(204,153,255)" text-rendering="geometricPrecision" shape-rendering="geometricPrecision" transform="matrix(1,0,0,1,0,52)" stroke="rgb(204,153,255)">
      <rect x="680.5422" width="101.2109" height="30" y="1285.9961" clip-path="url(#clipPath2)" stroke="none"/>
    </g>
    <g text-rendering="geometricPrecision" stroke-miterlimit="1.45" shape-rendering="geometricPrecision" transform="matrix(1,0,0,1,0,52)" stroke-linecap="butt">
      <rect fill="none" x="680.5422" width="101.2109" height="30" y="1285.9961" clip-path="url(#clipPath2)"/>
      <text x="687.5422" xml:space="preserve" y="1305.5312" clip-path="url(#clipPath2)" font-family="sans-serif" stroke="none">Message de fin</text>
      <path fill="none" d="M367.0262 1119.9631 L367.0262 587.998" clip-path="url(#clipPath2)"/>
      <path d="M367.0262 579.998 L362.0262 591.998 L367.0262 588.998 L372.0262 591.998 Z" clip-path="url(#clipPath2)" stroke="none"/>
      <path fill="none" d="M481.1036 1008.3301 L481.1036 1025.2812" clip-path="url(#clipPath2)"/>
      <path d="M481.1036 1033.2812 L486.1036 1021.2812 L481.1036 1024.2812 L476.1036 1021.2812 Z" clip-path="url(#clipPath2)" stroke="none"/>
      <path fill="none" d="M481.1036 1063.3301 L481.1036 1075.291" clip-path="url(#clipPath2)"/>
      <path d="M481.1036 1083.291 L486.1036 1071.291 L481.1036 1074.291 L476.1036 1071.291 Z" clip-path="url(#clipPath2)" stroke="none"/>
      <path fill="none" d="M652.2389 1149.9961 L652.2389 1166.9473" clip-path="url(#clipPath2)"/>
      <path d="M652.2389 1174.9473 L657.2389 1162.9473 L652.2389 1165.9473 L647.2389 1162.9473 Z" clip-path="url(#clipPath2)" stroke="none"/>
      <path fill="none" d="M652.2389 1204.9961 L652.2389 1216.957" clip-path="url(#clipPath2)"/>
      <path d="M652.2389 1224.957 L657.2389 1212.957 L652.2389 1215.957 L647.2389 1212.957 Z" clip-path="url(#clipPath2)" stroke="none"/>
      <path fill="none" d="M652.2389 1254.9961 L652.2389 1270.4961 L705.8449 1270.4961 L705.8449 1277.9658" clip-path="url(#clipPath2)"/>
      <path d="M705.8449 1285.9658 L710.8449 1273.9658 L705.8449 1276.9658 L700.8449 1273.9658 Z" clip-path="url(#clipPath2)" stroke="none"/>
      <path fill="none" d="M756.4504 1285.9663 L756.4504 1255.4961 L810.0563 1255.4961 L810.0563 129.666" clip-path="url(#clipPath2)"/>
      <path d="M810.0563 121.666 L805.0563 133.666 L810.0563 130.666 L815.0563 133.666 Z" clip-path="url(#clipPath2)" stroke="none"/>
    </g>
    <g fill="rgb(245,245,245)" text-rendering="geometricPrecision" shape-rendering="geometricPrecision" transform="matrix(1,0,0,1,0,52)" stroke="rgb(245,245,245)">
      <rect x="114.6143" y="152.666" clip-path="url(#clipPath2)" width="660.6718" rx="4" ry="4" height="81.666" stroke="none"/>
      <rect x="114.6143" y="152.666" clip-path="url(#clipPath2)" fill="rgb(235,235,235)" width="660.6718" height="21.666" stroke="none"/>
    </g>
    <g font-size="15px" stroke-linecap="butt" transform="matrix(1,0,0,1,0,52)" text-rendering="geometricPrecision" font-family="sans-serif" shape-rendering="geometricPrecision" stroke-miterlimit="1.45">
      <text x="713.2129" xml:space="preserve" y="169.168" clip-path="url(#clipPath2)" stroke="none">Réveille </text>
      <rect x="114.6143" y="152.666" clip-path="url(#clipPath2)" fill="none" width="660.6718" stroke-dasharray="6,2" rx="4" ry="4" height="81.666"/>
    </g>
    <g fill="rgb(255,204,0)" text-rendering="geometricPrecision" shape-rendering="geometricPrecision" transform="matrix(1,0,0,1,0,52)" stroke="rgb(255,204,0)">
      <rect x="130.6147" width="161.5215" height="30" y="189.332" clip-path="url(#clipPath2)" stroke="none"/>
    </g>
    <g text-rendering="geometricPrecision" stroke-miterlimit="1.45" shape-rendering="geometricPrecision" transform="matrix(1,0,0,1,0,52)" stroke-linecap="butt">
      <rect fill="none" x="130.6147" width="161.5215" height="30" y="189.332" clip-path="url(#clipPath2)"/>
      <text x="138.6147" xml:space="preserve" y="208.8672" clip-path="url(#clipPath2)" font-family="sans-serif" stroke="none">Détéction de la présence </text>
    </g>
    <g fill="rgb(255,204,0)" text-rendering="geometricPrecision" shape-rendering="geometricPrecision" transform="matrix(1,0,0,1,0,52)" stroke="rgb(255,204,0)">
      <path d="M312.1368 189.3325 L714.5713 189.3325 L759.2861 204.3325 L714.5713 219.3325 L312.1368 219.3325 L356.8517 204.3325 Z" fill-rule="evenodd" clip-path="url(#clipPath2)" stroke="none"/>
    </g>
    <g text-rendering="geometricPrecision" stroke-miterlimit="1.45" shape-rendering="geometricPrecision" transform="matrix(1,0,0,1,0,52)" stroke-linecap="butt">
      <path fill="none" d="M312.1368 189.3325 L714.5713 189.3325 L759.2861 204.3325 L714.5713 219.3325 L312.1368 219.3325 L356.8517 204.3325 Z" fill-rule="evenodd" clip-path="url(#clipPath2)"/>
      <text x="375.3049" xml:space="preserve" y="208.8672" clip-path="url(#clipPath2)" font-family="sans-serif" stroke="none">Appuyer sur un des 2 boutons pour prendre une photo</text>
      <path fill="none" d="M761.5159 121.666 L761.5159 137.166 L759.7861 137.166 L759.7861 144.6357" clip-path="url(#clipPath2)"/>
      <path d="M759.7861 152.6357 L764.7861 140.6357 L759.7861 143.6357 L754.7861 140.6357 Z" clip-path="url(#clipPath2)" stroke="none"/>
      <path fill="none" d="M327.1893 234.332 L327.1893 257.3018" clip-path="url(#clipPath2)"/>
      <path d="M327.1893 265.3018 L332.1893 253.3018 L327.1893 256.3018 L322.1893 253.3018 Z" clip-path="url(#clipPath2)" stroke="none"/>
    </g>
    <g fill="rgb(245,245,245)" text-rendering="geometricPrecision" shape-rendering="geometricPrecision" transform="matrix(1,0,0,1,0,52)" stroke="rgb(245,245,245)">
      <rect x="82.3643" y="-36.666" clip-path="url(#clipPath2)" width="618.9222" rx="4" ry="4" height="81.666" stroke="none"/>
      <rect x="82.3643" y="-36.666" clip-path="url(#clipPath2)" fill="rgb(235,235,235)" width="618.9222" height="21.666" stroke="none"/>
    </g>
    <g font-size="15px" stroke-linecap="butt" transform="matrix(1,0,0,1,0,52)" text-rendering="geometricPrecision" font-family="sans-serif" shape-rendering="geometricPrecision" stroke-miterlimit="1.45">
      <text x="636.5326" xml:space="preserve" y="-20.1641" clip-path="url(#clipPath2)" stroke="none">TimeOut</text>
      <rect x="82.3643" y="-36.666" clip-path="url(#clipPath2)" fill="none" width="618.9222" stroke-dasharray="6,2" rx="4" ry="4" height="81.666"/>
    </g>
    <g fill="rgb(255,204,0)" text-rendering="geometricPrecision" shape-rendering="geometricPrecision" transform="matrix(1,0,0,1,0,52)" stroke="rgb(255,204,0)">
      <rect x="249.8176" width="133.9883" height="30" y="0" clip-path="url(#clipPath2)" stroke="none"/>
    </g>
    <g text-rendering="geometricPrecision" stroke-miterlimit="1.45" shape-rendering="geometricPrecision" transform="matrix(1,0,0,1,0,52)" stroke-linecap="butt">
      <rect fill="none" x="249.8176" width="133.9883" height="30" y="0" clip-path="url(#clipPath2)"/>
      <text x="256.8176" xml:space="preserve" y="19.5352" clip-path="url(#clipPath2)" font-family="sans-serif" stroke="none">Timer sans présence</text>
    </g>
    <g fill="rgb(255,204,0)" text-rendering="geometricPrecision" shape-rendering="geometricPrecision" transform="matrix(1,0,0,1,0,52)" stroke="rgb(255,204,0)">
      <rect x="403.806" width="130.0273" height="30" y="0" clip-path="url(#clipPath2)" stroke="none"/>
    </g>
    <g text-rendering="geometricPrecision" stroke-miterlimit="1.45" shape-rendering="geometricPrecision" transform="matrix(1,0,0,1,0,52)" stroke-linecap="butt">
      <rect fill="none" x="403.806" width="130.0273" height="30" y="0" clip-path="url(#clipPath2)"/>
      <text x="410.806" xml:space="preserve" y="19.5352" clip-path="url(#clipPath2)" font-family="sans-serif" stroke="none">Timer sans activitée</text>
      <path fill="none" d="M685.7865 45 L685.7865 76.166 L767.5835 76.166 L767.5835 83.6357" clip-path="url(#clipPath2)"/>
      <path d="M767.5835 91.6357 L772.5835 79.6357 L767.5835 82.6357 L762.5835 79.6357 Z" clip-path="url(#clipPath2)" stroke="none"/>
      <path fill="none" d="M104.1143 45 L104.1143 249.832 L279.3664 249.832 L279.3664 257.3018" clip-path="url(#clipPath2)"/>
      <path d="M279.3664 265.3018 L284.3664 253.3018 L279.3664 256.3018 L274.3664 253.3018 Z" clip-path="url(#clipPath2)" stroke="none"/>
      <path fill="none" d="M88.1143 45 L88.1143 429.2841" clip-path="url(#clipPath2)"/>
      <path d="M88.1143 437.2841 L93.1143 425.2841 L88.1143 428.2841 L83.1143 425.2841 Z" clip-path="url(#clipPath2)" stroke="none"/>
    </g>
    <g fill="rgb(245,245,245)" text-rendering="geometricPrecision" shape-rendering="geometricPrecision" transform="matrix(1,0,0,1,0,52)" stroke="rgb(245,245,245)">
      <rect x="721.2865" y="-36.666" clip-path="url(#clipPath2)" width="504.7274" rx="4" ry="4" height="81.666" stroke="none"/>
      <rect x="721.2865" y="-36.666" clip-path="url(#clipPath2)" fill="rgb(235,235,235)" width="504.7274" height="21.666" stroke="none"/>
    </g>
    <g font-size="15px" stroke-linecap="butt" transform="matrix(1,0,0,1,0,52)" text-rendering="geometricPrecision" font-family="sans-serif" shape-rendering="geometricPrecision" stroke-miterlimit="1.45">
      <text x="1145.1028" xml:space="preserve" y="-20.1641" clip-path="url(#clipPath2)" stroke="none">Lancement</text>
      <rect x="721.2865" y="-36.666" clip-path="url(#clipPath2)" fill="none" width="504.7274" stroke-dasharray="6,2" rx="4" ry="4" height="81.666"/>
    </g>
    <g fill="rgb(255,204,0)" text-rendering="geometricPrecision" shape-rendering="geometricPrecision" transform="matrix(1,0,0,1,0,52)" stroke="rgb(255,204,0)">
      <rect x="737.2867" width="133.4043" height="30" y="0" clip-path="url(#clipPath2)" stroke="none"/>
    </g>
    <g text-rendering="geometricPrecision" stroke-miterlimit="1.45" stroke-width="6" shape-rendering="geometricPrecision" transform="matrix(1,0,0,1,0,52)" stroke-linecap="butt">
      <rect fill="none" x="737.2867" width="133.4043" height="30" y="0" clip-path="url(#clipPath2)"/>
      <text x="744.2867" font-size="20px" y="22.5586" clip-path="url(#clipPath2)" font-family="sans-serif" stroke="none" stroke-width="1" xml:space="preserve">LANCEMENT</text>
    </g>
    <g fill="rgb(255,204,0)" text-rendering="geometricPrecision" shape-rendering="geometricPrecision" transform="matrix(1,0,0,1,0,52)" stroke="rgb(255,204,0)">
      <rect x="890.6912" width="319.3223" height="30" y="0" clip-path="url(#clipPath2)" stroke="none"/>
    </g>
    <g text-rendering="geometricPrecision" stroke-miterlimit="1.45" stroke-width="6" shape-rendering="geometricPrecision" transform="matrix(1,0,0,1,0,52)" stroke-linecap="butt">
      <rect fill="none" x="890.6912" width="319.3223" height="30" y="0" clip-path="url(#clipPath2)"/>
      <text x="897.6912" font-size="20px" y="22.5586" clip-path="url(#clipPath2)" font-family="sans-serif" stroke="none" stroke-width="1" xml:space="preserve">LANCEMENT avec paramettrage</text>
      <path fill="none" d="M803.9889 30 L803.9888 83.6359" stroke-width="1" clip-path="url(#clipPath2)"/>
      <path d="M803.9888 91.6359 L808.9888 79.6359 L803.9888 82.6359 L798.9888 79.6359 Z" stroke-width="1" clip-path="url(#clipPath2)" stroke="none"/>
    </g>
    <g fill="rgb(245,245,245)" text-rendering="geometricPrecision" shape-rendering="geometricPrecision" transform="matrix(1,0,0,1,0,52)" stroke="rgb(245,245,245)">
      <rect x="951.6397" y="55" clip-path="url(#clipPath2)" width="181.4726" rx="4" ry="4" height="366.332" stroke="none"/>
      <rect x="951.6397" y="55" clip-path="url(#clipPath2)" fill="rgb(235,235,235)" width="181.4726" height="21.666" stroke="none"/>
    </g>
    <g font-size="15px" stroke-linecap="butt" transform="matrix(1,0,0,1,0,52)" text-rendering="geometricPrecision" font-family="sans-serif" shape-rendering="geometricPrecision" stroke-miterlimit="1.45">
      <text x="1034.4033" xml:space="preserve" y="71.502" clip-path="url(#clipPath2)" stroke="none">Paramettrage</text>
      <rect x="951.6397" y="55" clip-path="url(#clipPath2)" fill="none" width="181.4726" stroke-dasharray="6,2" rx="4" ry="4" height="366.332"/>
    </g>
    <g fill="rgb(255,204,0)" text-rendering="geometricPrecision" shape-rendering="geometricPrecision" transform="matrix(1,0,0,1,0,52)" stroke="rgb(255,204,0)">
      <rect x="992.912" width="114.8809" height="30" y="91.666" clip-path="url(#clipPath2)" stroke="none"/>
    </g>
    <g text-rendering="geometricPrecision" stroke-miterlimit="1.45" shape-rendering="geometricPrecision" transform="matrix(1,0,0,1,0,52)" stroke-linecap="butt">
      <rect fill="none" x="992.912" width="114.8809" height="30" y="91.666" clip-path="url(#clipPath2)"/>
      <text x="999.9119" xml:space="preserve" y="111.2012" clip-path="url(#clipPath2)" font-family="sans-serif" stroke="none">Le fichier existe ?</text>
    </g>
    <g fill="rgb(255,204,0)" text-rendering="geometricPrecision" shape-rendering="geometricPrecision" transform="matrix(1,0,0,1,0,52)" stroke="rgb(255,204,0)">
      <rect x="967.64" width="107.9844" height="30" y="265.332" clip-path="url(#clipPath2)" stroke="none"/>
    </g>
    <g text-rendering="geometricPrecision" stroke-miterlimit="1.45" shape-rendering="geometricPrecision" transform="matrix(1,0,0,1,0,52)" stroke-linecap="butt">
      <rect fill="none" x="967.64" width="107.9844" height="30" y="265.332" clip-path="url(#clipPath2)"/>
      <text x="974.64" xml:space="preserve" y="284.8672" clip-path="url(#clipPath2)" font-family="sans-serif" stroke="none">Éffacer le fichier</text>
    </g>
    <g fill="rgb(255,204,0)" text-rendering="geometricPrecision" shape-rendering="geometricPrecision" transform="matrix(1,0,0,1,0,52)" stroke="rgb(255,204,0)">
      <rect x="996.4043" width="100.9121" height="30" y="326.332" clip-path="url(#clipPath2)" stroke="none"/>
    </g>
    <g text-rendering="geometricPrecision" stroke-miterlimit="1.45" shape-rendering="geometricPrecision" transform="matrix(1,0,0,1,0,52)" stroke-linecap="butt">
      <rect fill="none" x="996.4043" width="100.9121" height="30" y="326.332" clip-path="url(#clipPath2)"/>
      <text x="1003.4042" xml:space="preserve" y="345.8672" clip-path="url(#clipPath2)" font-family="sans-serif" stroke="none">Écrire le fichier</text>
    </g>
    <g fill="rgb(255,204,0)" text-rendering="geometricPrecision" shape-rendering="geometricPrecision" transform="matrix(1,0,0,1,0,52)" stroke="rgb(255,204,0)">
      <rect x="1002.6146" width="38.0352" height="30" y="189.332" clip-path="url(#clipPath2)" stroke="none"/>
    </g>
    <g text-rendering="geometricPrecision" stroke-miterlimit="1.45" shape-rendering="geometricPrecision" transform="matrix(1,0,0,1,0,52)" stroke-linecap="butt">
      <rect fill="none" x="1002.6146" width="38.0352" height="30" y="189.332" clip-path="url(#clipPath2)"/>
      <text x="1009.6146" xml:space="preserve" y="208.8672" clip-path="url(#clipPath2)" font-family="sans-serif" stroke="none">Oui </text>
    </g>
    <g fill="rgb(255,204,0)" text-rendering="geometricPrecision" shape-rendering="geometricPrecision" transform="matrix(1,0,0,1,0,52)" stroke="rgb(255,204,0)">
      <rect x="1072.2828" width="37.6836" height="30" y="189.332" clip-path="url(#clipPath2)" stroke="none"/>
    </g>
    <g text-rendering="geometricPrecision" stroke-miterlimit="1.45" shape-rendering="geometricPrecision" transform="matrix(1,0,0,1,0,52)" stroke-linecap="butt">
      <rect fill="none" x="1072.2828" width="37.6836" height="30" y="189.332" clip-path="url(#clipPath2)"/>
      <text x="1079.2828" xml:space="preserve" y="208.8672" clip-path="url(#clipPath2)" font-family="sans-serif" stroke="none">Non</text>
    </g>
    <g fill="rgb(255,204,0)" text-rendering="geometricPrecision" shape-rendering="geometricPrecision" transform="matrix(1,0,0,1,0,52)" stroke="rgb(255,204,0)">
      <rect x="976.6084" width="140.5039" height="30" y="376.332" clip-path="url(#clipPath2)" stroke="none"/>
    </g>
    <g text-rendering="geometricPrecision" stroke-miterlimit="1.45" shape-rendering="geometricPrecision" transform="matrix(1,0,0,1,0,52)" stroke-linecap="butt">
      <rect fill="none" x="976.6084" width="140.5039" height="30" y="376.332" clip-path="url(#clipPath2)"/>
      <text x="983.6083" xml:space="preserve" y="395.8672" clip-path="url(#clipPath2)" font-family="sans-serif" stroke="none">Quitter le programme</text>
      <path fill="none" d="M1050.3524 30 L1050.3524 83.6359" clip-path="url(#clipPath2)"/>
      <path d="M1050.3524 91.6359 L1055.3524 79.6359 L1050.3524 82.6359 L1045.3524 79.6359 Z" clip-path="url(#clipPath2)" stroke="none"/>
      <path fill="none" d="M1021.6321 295.332 L1021.6323 318.3018" clip-path="url(#clipPath2)"/>
      <path d="M1021.6323 326.3018 L1026.6323 314.3018 L1021.6323 317.3018 L1016.6323 314.3018 Z" clip-path="url(#clipPath2)" stroke="none"/>
      <path fill="none" d="M1021.6321 121.666 L1021.6321 181.299" clip-path="url(#clipPath2)"/>
      <path d="M1021.6321 189.299 L1026.6321 177.299 L1021.6321 180.299 L1016.6321 177.299 Z" clip-path="url(#clipPath2)" stroke="none"/>
      <path fill="none" d="M1021.6321 219.332 L1021.6321 257.2871" clip-path="url(#clipPath2)"/>
      <path d="M1021.6321 265.2871 L1026.6321 253.2871 L1021.6321 256.2871 L1016.6321 253.2871 Z" clip-path="url(#clipPath2)" stroke="none"/>
      <path fill="none" d="M1079.0726 121.666 L1079.0726 137.166 L1091.1246 137.166 L1091.1246 181.3066" clip-path="url(#clipPath2)"/>
      <path d="M1091.1246 189.3066 L1096.1246 177.3066 L1091.1246 180.3066 L1086.1246 177.3066 Z" clip-path="url(#clipPath2)" stroke="none"/>
      <path fill="none" d="M1091.1246 219.332 L1091.1246 310.832 L1072.0884 310.832 L1072.0884 318.3018" clip-path="url(#clipPath2)"/>
      <path d="M1072.0884 326.3018 L1077.0884 314.3018 L1072.0884 317.3018 L1067.0884 314.3018 Z" clip-path="url(#clipPath2)" stroke="none"/>
      <path fill="none" d="M1046.8604 356.332 L1046.8604 368.293" clip-path="url(#clipPath2)"/>
      <path d="M1046.8604 376.293 L1051.8604 364.293 L1046.8604 367.293 L1041.8604 364.293 Z" clip-path="url(#clipPath2)" stroke="none"/>
    </g>
  </g>
</svg>
